<svg width="20" height="20" viewBox="0 0 20 20" fill="none" xmlns="http://www.w3.org/2000/svg">
<g clip-path="url(#clip0_222_8554)">
<path fill-rule="evenodd" clip-rule="evenodd" d="M19.5584 16.6261C19.4739 16.2203 19.0765 15.9599 18.6705 16.0443C18.2647 16.1288 18.0042 16.5263 18.0887 16.9321C18.1374 17.1659 18.0794 17.4054 17.9298 17.5896C17.8431 17.6962 17.6498 17.875 17.3294 17.875H2.67027C2.34985 17.875 2.15654 17.6961 2.06985 17.5896C1.92015 17.4055 1.86221 17.1659 1.91088 16.9321C2.68982 13.1907 5.98987 10.4577 9.80084 10.3655C9.86685 10.368 9.93317 10.3693 9.99981 10.3693C10.0667 10.3693 10.1333 10.368 10.1995 10.3655C12.884 10.4299 15.3652 11.7895 16.8678 14.0305C17.0987 14.3748 17.5649 14.4667 17.9093 14.2359C18.2535 14.0051 18.3455 13.5388 18.1147 13.1945C16.8831 11.3577 15.0947 10.0221 13.0557 9.351C14.2982 8.41921 15.1037 6.93462 15.1037 5.26548C15.1037 2.45123 12.8141 0.161621 9.99982 0.161621C7.18553 0.161621 4.89597 2.45123 4.89597 5.26548C4.89597 6.93564 5.70238 8.42101 6.94626 9.35273C5.80659 9.72794 4.73723 10.3118 3.80127 11.0816C2.08502 12.4933 0.891727 14.4624 0.441276 16.6261C0.300093 17.3042 0.469237 18.0005 0.905237 18.5367C1.3391 19.0702 1.98245 19.3761 2.67027 19.3761H17.3293C18.0172 19.3761 18.6605 19.0702 19.0944 18.5367C19.5304 18.0005 19.6995 17.3042 19.5584 16.6261ZM6.39712 5.26556C6.39712 3.279 8.01328 1.66284 9.99984 1.66284C11.9864 1.66284 13.6026 3.279 13.6026 5.26556C13.6026 7.19096 12.0844 8.76842 10.1822 8.86371C10.1215 8.86258 10.0607 8.86201 9.99984 8.86201C9.93928 8.86201 9.8787 8.86262 9.81821 8.86374C7.91571 8.76883 6.39712 7.19122 6.39712 5.26556Z" fill="#334A86"/>
</g>
<defs>
<clipPath id="clip0_222_8554">
<rect width="19.2145" height="19.2145" fill="white" transform="translate(0.392578 0.161621)"/>
</clipPath>
</defs>
</svg>
