<svg width="18" height="22" viewBox="0 0 18 22" fill="none" xmlns="http://www.w3.org/2000/svg">
<path d="M6.45 14.4002H11.575V13.0002H8.475L11.575 9.1002V7.7002H6.45V9.1002H9.525L6.45 13.0002V14.4002ZM0.75 18.1252V16.4252H2.9V8.9502C2.9 7.5002 3.32083 6.2127 4.1625 5.0877C5.00417 3.9627 6.11667 3.2502 7.5 2.9502V2.2502C7.5 1.8502 7.64583 1.5127 7.9375 1.2377C8.22917 0.962695 8.58333 0.825195 9 0.825195C9.41667 0.825195 9.77083 0.962695 10.0625 1.2377C10.3542 1.5127 10.5 1.8502 10.5 2.2502V2.9502C11.8833 3.2502 13 3.9627 13.85 5.0877C14.7 6.2127 15.125 7.5002 15.125 8.9502V16.4252H17.275V18.1252H0.75ZM9 21.1502C8.45 21.1502 7.97083 20.9502 7.5625 20.5502C7.15417 20.1502 6.95 19.6669 6.95 19.1002H11.05C11.05 19.6669 10.85 20.1502 10.45 20.5502C10.05 20.9502 9.56667 21.1502 9 21.1502ZM4.6 16.4252H13.425V8.9502C13.425 7.71686 13 6.66686 12.15 5.8002C11.3 4.93353 10.2583 4.5002 9.025 4.5002C7.79167 4.5002 6.74583 4.93353 5.8875 5.8002C5.02917 6.66686 4.6 7.71686 4.6 8.9502V16.4252Z" fill="white"/>
</svg>
