<svg width="23" height="22" viewBox="0 0 23 22" fill="none" xmlns="http://www.w3.org/2000/svg">
<path d="M21.175 9.825L20.6 8.575L19.35 8L20.6 7.425L21.175 6.175L21.75 7.425L23 8L21.75 8.575L21.175 9.825ZM18 5.45L17.125 3.6L15.275 2.725L17.125 1.85L18 0L18.875 1.85L20.725 2.725L18.875 3.6L18 5.45ZM8 22C7.43333 22 6.95417 21.8042 6.5625 21.4125C6.17083 21.0208 5.975 20.5417 5.975 19.975H10.025C10.025 20.5417 9.82917 21.0208 9.4375 21.4125C9.04583 21.8042 8.56667 22 8 22ZM3.95 18.425V16.925H12.05V18.425H3.95ZM4.075 15.4C2.975 14.6833 2.10417 13.7875 1.4625 12.7125C0.820833 11.6375 0.5 10.425 0.5 9.075C0.5 7.04167 1.24167 5.28333 2.725 3.8C4.20833 2.31667 5.96667 1.575 8 1.575C10.0333 1.575 11.7917 2.31667 13.275 3.8C14.7583 5.28333 15.5 7.04167 15.5 9.075C15.5 10.425 15.1833 11.6375 14.55 12.7125C13.9167 13.7875 13.0417 14.6833 11.925 15.4H4.075ZM4.625 13.9H11.4C12.2 13.3667 12.8333 12.675 13.3 11.825C13.7667 10.975 14 10.0583 14 9.075C14 7.425 13.4125 6.0125 12.2375 4.8375C11.0625 3.6625 9.65 3.075 8 3.075C6.35 3.075 4.9375 3.6625 3.7625 4.8375C2.5875 6.0125 2 7.425 2 9.075C2 10.0583 2.23333 10.975 2.7 11.825C3.16667 12.675 3.80833 13.3667 4.625 13.9Z" fill="white"/>
</svg>
